<mxfile host="app.diagrams.net" modified="2024-10-02T12:30:49.977Z" agent="Mozilla/5.0 (Macintosh; Intel Mac OS X 10.15; rv:131.0) Gecko/20100101 Firefox/131.0" version="24.7.1" etag="gpay8w9Wtf9XyDGngd54" type="github">
  <diagram name="Page-1" id="T9acNfrFaNu9qJbYt2eK">
    <mxGraphModel>
      <root>
        <mxCell id="0" />
        <mxCell id="1" parent="0" />
      </root>
    </mxGraphModel>
  </diagram>
</mxfile>
